<!DOCTYPE svg PUBLIC "-//W3C//DTD SVG 1.1//EN" "http://www.w3.org/Graphics/SVG/1.1/DTD/svg11.dtd">
<!-- Uploaded to: SVG Repo, www.svgrepo.com, Transformed by: SVG Repo Mixer Tools -->
<svg fill="#78cf20" version="1.1" id="Capa_1" xmlns="http://www.w3.org/2000/svg" xmlns:xlink="http://www.w3.org/1999/xlink" width="800px" height="800px" viewBox="0 0 580.178 580.178" xml:space="preserve" stroke="#78cf20">
<g id="SVGRepo_bgCarrier" stroke-width="0"/>
<g id="SVGRepo_tracerCarrier" stroke-linecap="round" stroke-linejoin="round"/>
<g id="SVGRepo_iconCarrier"> <g> <path d="M239.49,0.582c-8.578-2.419-18.159,2.955-20.636,11.514l-18.705,65.551c-2.553,8.864,2.611,18.149,11.59,20.731 c1.473,0.411,2.983,0.612,4.504,0.612c1.76,0,3.5-0.277,5.25-0.852c5.27-1.759,9.323-5.977,10.844-11.303l18.714-65.58 C253.566,12.411,248.402,3.135,239.49,0.582z"/> <path d="M240.886,134.399c3.146,4.036,8.09,6.445,13.216,6.445c1.769,0,3.51-0.277,5.316-0.871c1.76-0.612,3.414-1.482,4.973-2.677 l104.165-81.31c7.258-5.689,8.539-16.218,2.858-23.495c-5.374-6.847-16.505-8.281-23.476-2.878l-104.164,81.31 C236.516,116.604,235.225,127.123,240.886,134.399z"/> <path d="M354.049,141.925l-70.715,18.178c-8.31,2.744-13.12,11.551-10.93,20.072c1.912,7.382,8.567,12.546,16.199,12.546 c1.396,0,2.792-0.182,4.149-0.526l69.778-17.892l0.937-0.268c8.349-2.745,13.168-11.571,10.969-20.043 C372.208,145.243,362.999,139.668,354.049,141.925z"/> <path d="M163.009,90.25c-16.15,3.021-31.881,9.868-45.699,20.731c-31.202,24.547-44.771,63.198-38.871,99.794 c4.81,52.297,65.072,158.442,118.212,226.623c0.258,0.335,0.497,0.631,0.755,0.984c0.239,0.277,0.517,0.612,0.746,0.938 c31.527,39.713,65.838,72.551,98.828,96.429l33.938,21.582c11.227,6.12,22.108,11.073,32.465,14.593 c34.177,14.354,74.941,10.241,106.125-14.315c13.827-10.872,24.184-24.519,30.915-39.541c3.931-6.799,3.605-15.615-1.587-22.204 l-92.757-117.896c-4.867-6.187-12.584-8.596-19.756-7.085l-0.058-0.067c-16.629,2.907-32.866,9.85-47.143,21.076 c-9.582,7.535-17.547,16.418-23.753,26.144c-12.737-13.264-25.303-27.636-37.515-42.945 c-12.049-15.491-51.245-65.943-61.161-81.444c10.948-3.749,21.448-9.362,31.039-16.897c14.268-11.226,24.854-25.34,31.557-40.879 l-0.01-0.039c3.156-6.607,2.554-14.764-2.275-20.913L184.247,97.039C179.055,90.431,170.554,88.012,163.009,90.25z"/> </g> </g>
</svg>